<?xml version="1.0" standalone="no"?>
<!DOCTYPE svg PUBLIC "-//W3C//DTD SVG 20010904//EN"
 "http://www.w3.org/TR/2001/REC-SVG-20010904/DTD/svg10.dtd">
<svg version="1.0" xmlns="http://www.w3.org/2000/svg"
 width="200.000000pt" height="200.000000pt" viewBox="0 0 200.000000 200.000000"
 preserveAspectRatio="xMidYMid meet">
<metadata>
Created by potrace 1.11, written by Peter Selinger 2001-2013
</metadata>
<g transform="translate(0.000000,200.000000) scale(0.100000,-0.100000)"
fill="#000000" stroke="none">
<path d="M143 1894 c-66 -33 -88 -144 -80 -409 7 -263 32 -359 135 -529 23
-37 42 -74 42 -82 0 -18 -55 -128 -104 -210 -20 -32 -36 -68 -36 -80 0 -28 32
-56 118 -98 72 -36 72 -36 56 -61 -27 -42 -15 -66 61 -118 84 -58 233 -135
332 -170 210 -76 466 -76 676 0 99 35 248 112 332 170 76 52 88 76 61 118 -16
25 -16 25 56 61 86 42 118 70 118 98 0 12 -16 48 -36 80 -49 82 -104 192 -104
210 0 8 19 45 42 82 103 170 128 266 135 529 8 271 -14 377 -84 410 -71 34
-98 22 -355 -149 l-235 -157 -79 17 c-108 23 -277 22 -371 -3 l-72 -19 -223
148 c-123 82 -237 156 -255 164 -42 18 -90 18 -130 -2z m1593 -311 c16 -129
-14 -329 -67 -453 l-22 -52 -22 59 c-27 75 -87 163 -164 238 l-61 59 158 103
c86 56 160 103 164 103 4 0 10 -26 14 -57z m-1377 11 c36 -20 108 -63 159 -96
l92 -60 -62 -67 c-79 -84 -132 -161 -162 -236 l-24 -58 -31 99 c-39 122 -63
248 -65 334 -1 65 8 120 21 120 3 0 36 -16 72 -36z m676 -170 c38 -15 49 -62
56 -254 7 -199 16 -241 65 -312 42 -60 87 -86 173 -98 137 -19 201 -79 201
-189 0 -67 -25 -122 -87 -191 -112 -125 -301 -220 -438 -220 -137 0 -326 95
-438 220 -62 69 -87 124 -87 191 0 110 64 170 201 189 86 12 131 38 173 98 49
71 58 113 65 312 6 144 11 192 24 217 21 40 51 52 92 37z m-277 -406 c7 -7 12
-21 12 -33 0 -12 -5 -26 -12 -33 -28 -28 -78 -7 -78 33 0 12 5 26 12 33 7 7
21 12 33 12 12 0 26 -5 33 -12z m590 0 c7 -7 12 -21 12 -33 0 -12 -5 -26 -12
-33 -7 -7 -21 -12 -33 -12 -12 0 -26 5 -33 12 -7 7 -12 21 -12 33 0 12 5 26
12 33 7 7 21 12 33 12 12 0 26 -5 33 -12z"/>
<path d="M854 719 c-3 -6 23 -40 60 -78 36 -36 66 -74 66 -83 0 -31 -24 -69
-51 -84 -68 -35 -141 2 -156 79 -7 32 -13 42 -28 42 -17 0 -20 -6 -17 -40 4
-49 31 -94 70 -117 55 -33 154 -19 192 27 12 14 15 14 34 -3 34 -32 62 -42
112 -42 82 0 138 52 145 135 4 34 1 40 -16 40 -15 0 -21 -10 -28 -42 -10 -51
-54 -93 -98 -93 -37 0 -85 24 -99 49 -21 41 -11 65 56 132 37 38 63 72 60 78
-5 7 -57 11 -151 11 -94 0 -146 -4 -151 -11z"/>
</g>
</svg>
